# xmcd
# Copyright (C) 1995-1998 Ti Kan
#
# Track frame offsets:
#       150
#       12011
#       36991
#       56462
#       72117
#       94952
#       111891
#       126906
#       145906
#       165749
#       182404
#       212312
#
# Disc length: 4257 seconds
#
# Revision: 0
# Processed by: cddbd v1.5.2PL0 Copyright (c) Steve Scherf et al.
# Submitted via: CD-Transfer v1.0
#
DISCID=9f109f0c
DTITLE=Vielsoatig - Auﬂnschaugn
DYEAR=12
DGENRE=
TTITLE0=Wianiger Isch Mehr
TTITLE1=Die Wohrheit 
TTITLE2=Stur Und Tamisch
TTITLE3=Der Blues
TTITLE4=Denk Net Noch
TTITLE5=Longschloferblues
TTITLE6=Summer
TTITLE7=Es Gibt Nicht Guits..
TTITLE8=Herbischt
TTITLE9=Auﬂnschaugn
TTITLE10=Musiziern
TTITLE11=Data Track
EXTD=
EXTT0=
EXTT1=
EXTT2=
EXTT3=
EXTT4=
EXTT5=
EXTT6=
EXTT7=
EXTT8=
EXTT9=
EXTT10=
EXTT11=
PLAYORDER=
